<svg id="SvgjsSvg1001" width="288" height="288" xmlns="http://www.w3.org/2000/svg" version="1.1" xmlns:xlink="http://www.w3.org/1999/xlink" xmlns:svgjs="http://svgjs.com/svgjs"><defs id="SvgjsDefs1002"></defs><g id="SvgjsG1008" transform="matrix(1,0,0,1,0,0)"><svg xmlns="http://www.w3.org/2000/svg" width="288" height="288" viewBox="0 0 30 30"><g fill="none"><path fill="#4d4d4d" d="M12.75 12.75V9a.75.75 0 0 1 .75-.75h3a.75.75 0 0 1 .75.75v3.75h5.25a2.75 2.75 0 0 1 2.75 2.75V22a.75.75 0 1 1-1.5 0v-6.5c0-.69-.56-1.25-1.25-1.25h-15c-.69 0-1.25.56-1.25 1.25V22a.75.75 0 1 1-1.5 0v-6.5a2.75 2.75 0 0 1 2.75-2.75h5.25zm1.5 0h1.5v-3h-1.5v3zM2 25.75a.75.75 0 1 1 0-1.5h26a.75.75 0 1 1 0 1.5H2z" class="color4D4D4D svgShape"></path><path fill="#e9cda7" d="M23.75 19.63a3.993 3.993 0 0 1-1.69.37c-.881 0-1.712-.28-2.353-.769a3.891 3.891 0 0 1-2.354.769c-.88 0-1.712-.28-2.353-.769a3.891 3.891 0 0 1-2.353.769c-.882 0-1.713-.28-2.354-.769A3.891 3.891 0 0 1 7.94 20a4.013 4.013 0 0 1-1.69-.368v-2.26c.253.52.9.914 1.69.914.692 0 1.301-.309 1.606-.771a.903.903 0 0 1 1.495 0c.304.462.914.77 1.606.77.691 0 1.3-.308 1.606-.77a.903.903 0 0 1 1.494 0c.305.462.915.77 1.606.77.692 0 1.302-.308 1.606-.77a.903.903 0 0 1 1.495 0c.305.462.914.77 1.606.77.79 0 1.437-.393 1.69-.91v2.256zM15 7c-1.105 0-2-.936-2-2.092 0-.77.667-1.907 2-3.41 1.333 1.503 2 2.64 2 3.41C17 6.064 16.105 7 15 7z" class="color8EDCFE svgShape"></path></g></svg></g></svg>