<svg id="SvgjsSvg1001" width="288" height="288" xmlns="http://www.w3.org/2000/svg" version="1.1" xmlns:xlink="http://www.w3.org/1999/xlink" xmlns:svgjs="http://svgjs.com/svgjs"><defs id="SvgjsDefs1002"></defs><g id="SvgjsG1008" transform="matrix(1,0,0,1,0,0)"><svg xmlns="http://www.w3.org/2000/svg" width="288" height="288" viewBox="0 0 300 300"><g transform="translate(-221.857 -376.148)" fill="#bdbdbd" class="color000 svgShape"><rect width="299.999" height="299.999" x="221.857" y="376.148" ry="71.309" fill="#bdbdbd" class="color000 svgShape"></rect><path fill="#ffffff" d="m 462.5,465.93363 c -56.07143,-5.35714 -55,-54.64285 -55,-54.64285 h -36.15439 v 155.64505 c -0.91152,16.64579 -14.67491,29.67613 -31.34564,29.67613 -17.33765,0 -31.3926,-14.05495 -31.3926,-31.3926 0,-17.33765 14.05495,-31.3926 31.3926,-31.3926 3.65897,0 7.28978,0.63967 10.72845,1.89013 l 0.35473,-41.09386 c -3.82692,-0.64891 -7.7016,-0.97509 -11.58315,-0.97509 -38.26544,0 -69.28571,31.02027 -69.28571,69.28571 0,38.26544 31.02027,69.28572 69.28571,69.28572 36.95878,0 67.41115,-29.0092 69.20413,-65.92446 v -81.07556 c 0,0 19.8673,17.14285 53.79587,17.85714 z" class="colorfff svgShape"></path></g></svg></g></svg>