<?xml version="1.0" encoding="utf-8"?>
<!-- Generator: Adobe Illustrator 22.0.0, SVG Export Plug-In . SVG Version: 6.00 Build 0)  -->
<svg version="1.1" id="Capa_1" xmlns="http://www.w3.org/2000/svg" xmlns:xlink="http://www.w3.org/1999/xlink" x="0px" y="0px"
	 viewBox="0 0 512 512" style="enable-background:new 0 0 512 512;" xml:space="preserve">
<style type="text/css">
	.st0{fill:#FCFCFC;}
</style>
<g>
	<path class="st0" d="M511.7,51.7c2.5-11.6-8.9-21.4-20-17.2l-482,184c-5.8,2.2-9.6,7.8-9.6,14c0,6.2,3.8,11.8,9.6,14L145,298.8
		v164.7c0,6.9,4.8,13,11.5,14.6c6.7,1.6,13.7-1.6,16.9-7.8l56-111.1l136.7,101.4c8.3,6.2,20.3,2.2,23.3-7.7
		C516.9,34.5,511.4,52.7,511.7,51.7L511.7,51.7z M392.7,104.4L157.9,271.6l-101-39L392.7,104.4z M175,296.2l204.7-145.8
		c-176.1,185.8-166.9,176-167.7,177c-1.1,1.5,2-4.4-37,72.9V296.2z M366.9,423.8l-120.3-89.3l217.5-229.5L366.9,423.8z"/>
</g>
</svg>
