<svg id="SvgjsSvg1001" width="288" height="288" xmlns="http://www.w3.org/2000/svg" version="1.1" xmlns:xlink="http://www.w3.org/1999/xlink" xmlns:svgjs="http://svgjs.com/svgjs"><defs id="SvgjsDefs1002"></defs><g id="SvgjsG1008" transform="matrix(1,0,0,1,0,0)"><svg xmlns="http://www.w3.org/2000/svg" enable-background="new 0 0 500 500" viewBox="0 0 500 500" width="288" height="288"><path fill="#bdbdbd" d="M497.5,250c0,136.7-110.8,247.5-247.5,247.5C113.3,497.5,2.5,386.7,2.5,250C2.5,113.3,113.3,2.5,250,2.5		C386.7,2.5,497.5,113.3,497.5,250z" display="none" class="coloreef4d6 svgShape"></path><path fill="#cecece" d="M379.5,359.7L275.6,101.9l-71.9,0.8l11.9,30.2c0,0-79.5,209.9-85.5,224.8c-6,14.9-24,14-24,14v13.8h83.3v-15.5
	c-32.1,0-29.4-17.6-29.4-17.6l20.2-52.7h103.8c7.7,19,14.1,34.9,17.2,42.9c12.1,30.6-31.9,28.1-31.9,28.1v14.7h131v-15.5
	C382.1,369.9,379.5,359.7,379.5,359.7z M190.7,272.1l39.9-104.1c0,0,22.3,54.9,42.2,104.1H190.7z" display="none" class="color4b4a4c svgShape"></path><path fill="#bdbdbd" d="M497.5,250c0,136.7-110.8,247.5-247.5,247.5C113.3,497.5,2.5,386.7,2.5,250C2.5,113.3,113.3,2.5,250,2.5
		C386.7,2.5,497.5,113.3,497.5,250z" class="color76c9b8 svgShape"></path><path d="M271.3 360.7c-14.4-18.3-24-35.5-31.2-45.2l0 0-17.4-25.8c5.6-1.6 47.8-15.4 49.6-60.6 2-50.5-45.8-64.8-107-58.2h-13.5-6.4-7-29.2v10.5c0 0 29.2-.1 29.2 23.2v157.9c0 0-1.9 20.5-22.2 20.5h-6.9v11.2h89.3v-11.2h-11.1c-20.3 0-22.2-20.5-22.2-20.5v-69.2h25.9c7.2 11.7 48.1 78.2 58.7 86.6 12.2 9.8 18 11.2 18 11.2l0 0c6.6 3.3 22.2 9 42.7 3v-9.9C310.6 384.2 291.1 385.9 271.3 360.7zM165.3 187.5c7.3-.7 24.7-2 41.4.7 21.2 3.3 35.5 17 35.5 43.6 0 24.4-18.7 39.9-36.9 45.5h-40V187.5zM344.3 154.3v16.2h23c0 25.8-10 33.4-26.2 33.4-16.2 0-23.9-16.8-23.9-16.8s0-39.8 0-50.1c0-10.3 7.1-24.9 24.9-24.9 17.8 0 25.2 17.2 25.2 17.2l15-6.4C369.7 94.1 342 97 342 97c-43.3 0-42.7 42.7-42.7 42.7v43.2c0 0 1 37.4 42.4 37.4 41.4 0 43.6-39.2 43.6-39.2v-26.8H344.3z" fill="#ffffff" class="color000 svgShape"></path></svg></g></svg>